<svg width="801.946" height="751.667" xmlns="http://www.w3.org/2000/svg" xmlns:xlink="http://www.w3.org/1999/xlink" id="svg2890" overflow="hidden"><defs id="defs2892"><linearGradient id="linearGradient3744"><stop offset="0" stop-color="#700000"/><stop offset="0.0973133" stop-color="#AA0000"/><stop offset="0.88704" stop-color="#AA0000"/><stop offset="1" stop-color="#700000"/></linearGradient><linearGradient id="linearGradient2956"><stop offset="0" stop-color="#BBBBBB"/><stop offset="1" stop-color="#EEEEEE"/></linearGradient><linearGradient x1="400.75" y1="600" x2="400.75" y2="545" gradientUnits="userSpaceOnUse" xlink:href="#linearGradient2956" id="linearGradient2962"></linearGradient><linearGradient x1="21.6667" y1="333.333" x2="800" y2="332.989" gradientUnits="userSpaceOnUse" xlink:href="#linearGradient3744" id="linearGradient3750" gradientTransform="matrix(0.999314 0 0 1 0.548659 0)"></linearGradient><linearGradient x1="21.6667" y1="333.333" x2="140" y2="327.989" gradientUnits="userSpaceOnUse" xlink:href="#linearGradient3744-9" id="linearGradient3750-1"></linearGradient><linearGradient id="linearGradient3744-9"><stop offset="0" stop-color="#700000"/><stop offset="1" stop-color="#AA0000"/></linearGradient></defs><g id="layer1" transform="translate(1.21911 151.667)"><rect x="62" y="-151.667" rx="38.3333" ry="38.3333" width="677.5" height="751.667" id="logo-background" fill="url(#linearGradient2962)" fill-rule="evenodd"/><rect x="0.548659" y="206.865" width="799.451" height="242.246" id="rect2904" fill="url(#linearGradient3750)" fill-rule="evenodd"/><path d="M31.0166 470.552C13.8204 458.107-0.1823 447.888-0.10062 447.843-0.0189404 447.798 13.7706 447.772 30.5427 447.785L61.0376 447.809 61.7182 470.376C62.0926 482.788 62.3727 492.996 62.3406 493.061 62.3085 493.127 48.2127 482.997 31.0166 470.552L31.0166 470.552Z" id="path2932" fill="#800000"/><path d="M769.903 471.269C786.938 458.604 800.809 448.206 800.726 448.162 800.644 448.118 786.856 448.269 770.085 448.498L739.593 448.913 739.202 471.487C738.987 483.902 738.838 494.114 738.871 494.178 738.904 494.243 752.868 483.934 769.903 471.269L769.903 471.269Z" id="path2932-2" fill="#800000"/><text id="text3804" font-family="Bitstream Vera Sans" font-weight="400" font-size="160" transform="matrix(1 0 0 1 0 -200)" xml:space="preserve" x="98.3333" y="496.667"><tspan x="98.3333" y="496.667"></tspan></text><text id="text3808" fill="#ECECEC" font-family="DejaVu Serif" font-weight="700" font-size="160" text-anchor="middle" xml:space="preserve" x="398" y="384.333"><tspan font-family="Waree" font-size="180" x="398" y="384.333">SMASH</tspan></text><text id="text3816" font-family="Waree" font-weight="400" font-size="180" text-anchor="middle" xml:space="preserve" x="406" y="152.667"><tspan fill="#AA0000" font-weight="700" font-size="200" x="406" y="152.667">anti</tspan></text></g></svg>